<svg xmlns="http://www.w3.org/2000/svg" version="1.1" xmlns:xlink="http://www.w3.org/1999/xlink" xmlns:svgjs="http://svgjs.dev/svgjs" viewBox="0 0 800 800" opacity="0.48"><defs><linearGradient gradientTransform="rotate(270)" x1="50%" y1="0%" x2="50%" y2="100%" id="sssquiggly-grad"><stop stop-color="hsl(206, 75%, 49%)" stop-opacity="1" offset="0%"></stop><stop stop-color="hsl(331, 90%, 56%)" stop-opacity="1" offset="100%"></stop></linearGradient></defs><g stroke-width="4.5" stroke="#ff0000" fill="none" stroke-linecap="round" transform="matrix(1,0,0,1,-5,-667.571418762207)"><path d="M10,10C24.583333333333332,24.583333333333332,48.75,101.04166666666666,80,80C111.25,58.958333333333336,126.66666666666666,-78.91666666666667,160,-91C193.33333333333334,-103.08333333333333,206.66666666666666,19.5,240,22C273.3333333333333,24.5,286.6666666666667,-90.66666666666667,320,-79C353.3333333333333,-67.33333333333333,366.6666666666667,64.66666666666667,400,78C433.3333333333333,91.33333333333333,446.6666666666667,-22.5,480,-15C513.3333333333334,-7.5,526.6666666666666,127.75,560,114C593.3333333333334,100.25,606.6666666666666,-75.375,640,-81C673.3333333333334,-86.625,686.6666666666666,73.875,720,87C753.3333333333334,100.125,783.3333333333334,3.875,800,-18"></path><path d="M10,10C24.583333333333332,24.583333333333332,48.75,101.04166666666666,80,80C111.25,58.958333333333336,126.66666666666666,-78.91666666666667,160,-91C193.33333333333334,-103.08333333333333,206.66666666666666,19.5,240,22C273.3333333333333,24.5,286.6666666666667,-90.66666666666667,320,-79C353.3333333333333,-67.33333333333333,366.6666666666667,64.66666666666667,400,78C433.3333333333333,91.33333333333333,446.6666666666667,-22.5,480,-15C513.3333333333334,-7.5,526.6666666666666,127.75,560,114C593.3333333333334,100.25,606.6666666666666,-75.375,640,-81C673.3333333333334,-86.625,686.6666666666666,73.875,720,87C753.3333333333334,100.125,783.3333333333334,3.875,800,-18" transform="matrix(1,0,0,1,0,2112)"></path><path d="M10,10C24.583333333333332,24.583333333333332,48.75,101.04166666666666,80,80C111.25,58.958333333333336,126.66666666666666,-78.91666666666667,160,-91C193.33333333333334,-103.08333333333333,206.66666666666666,19.5,240,22C273.3333333333333,24.5,286.6666666666667,-90.66666666666667,320,-79C353.3333333333333,-67.33333333333333,366.6666666666667,64.66666666666667,400,78C433.3333333333333,91.33333333333333,446.6666666666667,-22.5,480,-15C513.3333333333334,-7.5,526.6666666666666,127.75,560,114C593.3333333333334,100.25,606.6666666666666,-75.375,640,-81C673.3333333333334,-86.625,686.6666666666666,73.875,720,87C753.3333333333334,100.125,783.3333333333334,3.875,800,-18" transform="matrix(1,0,0,1,0,2048)"></path><path d="M10,10C24.583333333333332,24.583333333333332,48.75,101.04166666666666,80,80C111.25,58.958333333333336,126.66666666666666,-78.91666666666667,160,-91C193.33333333333334,-103.08333333333333,206.66666666666666,19.5,240,22C273.3333333333333,24.5,286.6666666666667,-90.66666666666667,320,-79C353.3333333333333,-67.33333333333333,366.6666666666667,64.66666666666667,400,78C433.3333333333333,91.33333333333333,446.6666666666667,-22.5,480,-15C513.3333333333334,-7.5,526.6666666666666,127.75,560,114C593.3333333333334,100.25,606.6666666666666,-75.375,640,-81C673.3333333333334,-86.625,686.6666666666666,73.875,720,87C753.3333333333334,100.125,783.3333333333334,3.875,800,-18" transform="matrix(1,0,0,1,0,1984)"></path><path d="M10,10C24.583333333333332,24.583333333333332,48.75,101.04166666666666,80,80C111.25,58.958333333333336,126.66666666666666,-78.91666666666667,160,-91C193.33333333333334,-103.08333333333333,206.66666666666666,19.5,240,22C273.3333333333333,24.5,286.6666666666667,-90.66666666666667,320,-79C353.3333333333333,-67.33333333333333,366.6666666666667,64.66666666666667,400,78C433.3333333333333,91.33333333333333,446.6666666666667,-22.5,480,-15C513.3333333333334,-7.5,526.6666666666666,127.75,560,114C593.3333333333334,100.25,606.6666666666666,-75.375,640,-81C673.3333333333334,-86.625,686.6666666666666,73.875,720,87C753.3333333333334,100.125,783.3333333333334,3.875,800,-18" transform="matrix(1,0,0,1,0,1920)"></path><path d="M10,10C24.583333333333332,24.583333333333332,48.75,101.04166666666666,80,80C111.25,58.958333333333336,126.66666666666666,-78.91666666666667,160,-91C193.33333333333334,-103.08333333333333,206.66666666666666,19.5,240,22C273.3333333333333,24.5,286.6666666666667,-90.66666666666667,320,-79C353.3333333333333,-67.33333333333333,366.6666666666667,64.66666666666667,400,78C433.3333333333333,91.33333333333333,446.6666666666667,-22.5,480,-15C513.3333333333334,-7.5,526.6666666666666,127.75,560,114C593.3333333333334,100.25,606.6666666666666,-75.375,640,-81C673.3333333333334,-86.625,686.6666666666666,73.875,720,87C753.3333333333334,100.125,783.3333333333334,3.875,800,-18" transform="matrix(1,0,0,1,0,1856)"></path><path d="M10,10C24.583333333333332,24.583333333333332,48.75,101.04166666666666,80,80C111.25,58.958333333333336,126.66666666666666,-78.91666666666667,160,-91C193.33333333333334,-103.08333333333333,206.66666666666666,19.5,240,22C273.3333333333333,24.5,286.6666666666667,-90.66666666666667,320,-79C353.3333333333333,-67.33333333333333,366.6666666666667,64.66666666666667,400,78C433.3333333333333,91.33333333333333,446.6666666666667,-22.5,480,-15C513.3333333333334,-7.5,526.6666666666666,127.75,560,114C593.3333333333334,100.25,606.6666666666666,-75.375,640,-81C673.3333333333334,-86.625,686.6666666666666,73.875,720,87C753.3333333333334,100.125,783.3333333333334,3.875,800,-18" transform="matrix(1,0,0,1,0,1792)"></path><path d="M10,10C24.583333333333332,24.583333333333332,48.75,101.04166666666666,80,80C111.25,58.958333333333336,126.66666666666666,-78.91666666666667,160,-91C193.33333333333334,-103.08333333333333,206.66666666666666,19.5,240,22C273.3333333333333,24.5,286.6666666666667,-90.66666666666667,320,-79C353.3333333333333,-67.33333333333333,366.6666666666667,64.66666666666667,400,78C433.3333333333333,91.33333333333333,446.6666666666667,-22.5,480,-15C513.3333333333334,-7.5,526.6666666666666,127.75,560,114C593.3333333333334,100.25,606.6666666666666,-75.375,640,-81C673.3333333333334,-86.625,686.6666666666666,73.875,720,87C753.3333333333334,100.125,783.3333333333334,3.875,800,-18" transform="matrix(1,0,0,1,0,1728)"></path><path d="M10,10C24.583333333333332,24.583333333333332,48.75,101.04166666666666,80,80C111.25,58.958333333333336,126.66666666666666,-78.91666666666667,160,-91C193.33333333333334,-103.08333333333333,206.66666666666666,19.5,240,22C273.3333333333333,24.5,286.6666666666667,-90.66666666666667,320,-79C353.3333333333333,-67.33333333333333,366.6666666666667,64.66666666666667,400,78C433.3333333333333,91.33333333333333,446.6666666666667,-22.5,480,-15C513.3333333333334,-7.5,526.6666666666666,127.75,560,114C593.3333333333334,100.25,606.6666666666666,-75.375,640,-81C673.3333333333334,-86.625,686.6666666666666,73.875,720,87C753.3333333333334,100.125,783.3333333333334,3.875,800,-18" transform="matrix(1,0,0,1,0,1664)"></path><path d="M10,10C24.583333333333332,24.583333333333332,48.75,101.04166666666666,80,80C111.25,58.958333333333336,126.66666666666666,-78.91666666666667,160,-91C193.33333333333334,-103.08333333333333,206.66666666666666,19.5,240,22C273.3333333333333,24.5,286.6666666666667,-90.66666666666667,320,-79C353.3333333333333,-67.33333333333333,366.6666666666667,64.66666666666667,400,78C433.3333333333333,91.33333333333333,446.6666666666667,-22.5,480,-15C513.3333333333334,-7.5,526.6666666666666,127.75,560,114C593.3333333333334,100.25,606.6666666666666,-75.375,640,-81C673.3333333333334,-86.625,686.6666666666666,73.875,720,87C753.3333333333334,100.125,783.3333333333334,3.875,800,-18" transform="matrix(1,0,0,1,0,1600)"></path><path d="M10,10C24.583333333333332,24.583333333333332,48.75,101.04166666666666,80,80C111.25,58.958333333333336,126.66666666666666,-78.91666666666667,160,-91C193.33333333333334,-103.08333333333333,206.66666666666666,19.5,240,22C273.3333333333333,24.5,286.6666666666667,-90.66666666666667,320,-79C353.3333333333333,-67.33333333333333,366.6666666666667,64.66666666666667,400,78C433.3333333333333,91.33333333333333,446.6666666666667,-22.5,480,-15C513.3333333333334,-7.5,526.6666666666666,127.75,560,114C593.3333333333334,100.25,606.6666666666666,-75.375,640,-81C673.3333333333334,-86.625,686.6666666666666,73.875,720,87C753.3333333333334,100.125,783.3333333333334,3.875,800,-18" transform="matrix(1,0,0,1,0,1536)"></path><path d="M10,10C24.583333333333332,24.583333333333332,48.75,101.04166666666666,80,80C111.25,58.958333333333336,126.66666666666666,-78.91666666666667,160,-91C193.33333333333334,-103.08333333333333,206.66666666666666,19.5,240,22C273.3333333333333,24.5,286.6666666666667,-90.66666666666667,320,-79C353.3333333333333,-67.33333333333333,366.6666666666667,64.66666666666667,400,78C433.3333333333333,91.33333333333333,446.6666666666667,-22.5,480,-15C513.3333333333334,-7.5,526.6666666666666,127.75,560,114C593.3333333333334,100.25,606.6666666666666,-75.375,640,-81C673.3333333333334,-86.625,686.6666666666666,73.875,720,87C753.3333333333334,100.125,783.3333333333334,3.875,800,-18" transform="matrix(1,0,0,1,0,1472)"></path><path d="M10,10C24.583333333333332,24.583333333333332,48.75,101.04166666666666,80,80C111.25,58.958333333333336,126.66666666666666,-78.91666666666667,160,-91C193.33333333333334,-103.08333333333333,206.66666666666666,19.5,240,22C273.3333333333333,24.5,286.6666666666667,-90.66666666666667,320,-79C353.3333333333333,-67.33333333333333,366.6666666666667,64.66666666666667,400,78C433.3333333333333,91.33333333333333,446.6666666666667,-22.5,480,-15C513.3333333333334,-7.5,526.6666666666666,127.75,560,114C593.3333333333334,100.25,606.6666666666666,-75.375,640,-81C673.3333333333334,-86.625,686.6666666666666,73.875,720,87C753.3333333333334,100.125,783.3333333333334,3.875,800,-18" transform="matrix(1,0,0,1,0,1408)"></path><path d="M10,10C24.583333333333332,24.583333333333332,48.75,101.04166666666666,80,80C111.25,58.958333333333336,126.66666666666666,-78.91666666666667,160,-91C193.33333333333334,-103.08333333333333,206.66666666666666,19.5,240,22C273.3333333333333,24.5,286.6666666666667,-90.66666666666667,320,-79C353.3333333333333,-67.33333333333333,366.6666666666667,64.66666666666667,400,78C433.3333333333333,91.33333333333333,446.6666666666667,-22.5,480,-15C513.3333333333334,-7.5,526.6666666666666,127.75,560,114C593.3333333333334,100.25,606.6666666666666,-75.375,640,-81C673.3333333333334,-86.625,686.6666666666666,73.875,720,87C753.3333333333334,100.125,783.3333333333334,3.875,800,-18" transform="matrix(1,0,0,1,0,1344)"></path><path d="M10,10C24.583333333333332,24.583333333333332,48.75,101.04166666666666,80,80C111.25,58.958333333333336,126.66666666666666,-78.91666666666667,160,-91C193.33333333333334,-103.08333333333333,206.66666666666666,19.5,240,22C273.3333333333333,24.5,286.6666666666667,-90.66666666666667,320,-79C353.3333333333333,-67.33333333333333,366.6666666666667,64.66666666666667,400,78C433.3333333333333,91.33333333333333,446.6666666666667,-22.5,480,-15C513.3333333333334,-7.5,526.6666666666666,127.75,560,114C593.3333333333334,100.25,606.6666666666666,-75.375,640,-81C673.3333333333334,-86.625,686.6666666666666,73.875,720,87C753.3333333333334,100.125,783.3333333333334,3.875,800,-18" transform="matrix(1,0,0,1,0,1280)"></path><path d="M10,10C24.583333333333332,24.583333333333332,48.75,101.04166666666666,80,80C111.25,58.958333333333336,126.66666666666666,-78.91666666666667,160,-91C193.33333333333334,-103.08333333333333,206.66666666666666,19.5,240,22C273.3333333333333,24.5,286.6666666666667,-90.66666666666667,320,-79C353.3333333333333,-67.33333333333333,366.6666666666667,64.66666666666667,400,78C433.3333333333333,91.33333333333333,446.6666666666667,-22.5,480,-15C513.3333333333334,-7.5,526.6666666666666,127.75,560,114C593.3333333333334,100.25,606.6666666666666,-75.375,640,-81C673.3333333333334,-86.625,686.6666666666666,73.875,720,87C753.3333333333334,100.125,783.3333333333334,3.875,800,-18" transform="matrix(1,0,0,1,0,1216)"></path><path d="M10,10C24.583333333333332,24.583333333333332,48.75,101.04166666666666,80,80C111.25,58.958333333333336,126.66666666666666,-78.91666666666667,160,-91C193.33333333333334,-103.08333333333333,206.66666666666666,19.5,240,22C273.3333333333333,24.5,286.6666666666667,-90.66666666666667,320,-79C353.3333333333333,-67.33333333333333,366.6666666666667,64.66666666666667,400,78C433.3333333333333,91.33333333333333,446.6666666666667,-22.5,480,-15C513.3333333333334,-7.5,526.6666666666666,127.75,560,114C593.3333333333334,100.25,606.6666666666666,-75.375,640,-81C673.3333333333334,-86.625,686.6666666666666,73.875,720,87C753.3333333333334,100.125,783.3333333333334,3.875,800,-18" transform="matrix(1,0,0,1,0,1152)"></path><path d="M10,10C24.583333333333332,24.583333333333332,48.75,101.04166666666666,80,80C111.25,58.958333333333336,126.66666666666666,-78.91666666666667,160,-91C193.33333333333334,-103.08333333333333,206.66666666666666,19.5,240,22C273.3333333333333,24.5,286.6666666666667,-90.66666666666667,320,-79C353.3333333333333,-67.33333333333333,366.6666666666667,64.66666666666667,400,78C433.3333333333333,91.33333333333333,446.6666666666667,-22.5,480,-15C513.3333333333334,-7.5,526.6666666666666,127.75,560,114C593.3333333333334,100.25,606.6666666666666,-75.375,640,-81C673.3333333333334,-86.625,686.6666666666666,73.875,720,87C753.3333333333334,100.125,783.3333333333334,3.875,800,-18" transform="matrix(1,0,0,1,0,1088)"></path><path d="M10,10C24.583333333333332,24.583333333333332,48.75,101.04166666666666,80,80C111.25,58.958333333333336,126.66666666666666,-78.91666666666667,160,-91C193.33333333333334,-103.08333333333333,206.66666666666666,19.5,240,22C273.3333333333333,24.5,286.6666666666667,-90.66666666666667,320,-79C353.3333333333333,-67.33333333333333,366.6666666666667,64.66666666666667,400,78C433.3333333333333,91.33333333333333,446.6666666666667,-22.5,480,-15C513.3333333333334,-7.5,526.6666666666666,127.75,560,114C593.3333333333334,100.25,606.6666666666666,-75.375,640,-81C673.3333333333334,-86.625,686.6666666666666,73.875,720,87C753.3333333333334,100.125,783.3333333333334,3.875,800,-18" transform="matrix(1,0,0,1,0,1024)"></path><path d="M10,10C24.583333333333332,24.583333333333332,48.75,101.04166666666666,80,80C111.25,58.958333333333336,126.66666666666666,-78.91666666666667,160,-91C193.33333333333334,-103.08333333333333,206.66666666666666,19.5,240,22C273.3333333333333,24.5,286.6666666666667,-90.66666666666667,320,-79C353.3333333333333,-67.33333333333333,366.6666666666667,64.66666666666667,400,78C433.3333333333333,91.33333333333333,446.6666666666667,-22.5,480,-15C513.3333333333334,-7.5,526.6666666666666,127.75,560,114C593.3333333333334,100.25,606.6666666666666,-75.375,640,-81C673.3333333333334,-86.625,686.6666666666666,73.875,720,87C753.3333333333334,100.125,783.3333333333334,3.875,800,-18" transform="matrix(1,0,0,1,0,960)"></path><path d="M10,10C24.583333333333332,24.583333333333332,48.75,101.04166666666666,80,80C111.25,58.958333333333336,126.66666666666666,-78.91666666666667,160,-91C193.33333333333334,-103.08333333333333,206.66666666666666,19.5,240,22C273.3333333333333,24.5,286.6666666666667,-90.66666666666667,320,-79C353.3333333333333,-67.33333333333333,366.6666666666667,64.66666666666667,400,78C433.3333333333333,91.33333333333333,446.6666666666667,-22.5,480,-15C513.3333333333334,-7.5,526.6666666666666,127.75,560,114C593.3333333333334,100.25,606.6666666666666,-75.375,640,-81C673.3333333333334,-86.625,686.6666666666666,73.875,720,87C753.3333333333334,100.125,783.3333333333334,3.875,800,-18" transform="matrix(1,0,0,1,0,896)"></path><path d="M10,10C24.583333333333332,24.583333333333332,48.75,101.04166666666666,80,80C111.25,58.958333333333336,126.66666666666666,-78.91666666666667,160,-91C193.33333333333334,-103.08333333333333,206.66666666666666,19.5,240,22C273.3333333333333,24.5,286.6666666666667,-90.66666666666667,320,-79C353.3333333333333,-67.33333333333333,366.6666666666667,64.66666666666667,400,78C433.3333333333333,91.33333333333333,446.6666666666667,-22.5,480,-15C513.3333333333334,-7.5,526.6666666666666,127.75,560,114C593.3333333333334,100.25,606.6666666666666,-75.375,640,-81C673.3333333333334,-86.625,686.6666666666666,73.875,720,87C753.3333333333334,100.125,783.3333333333334,3.875,800,-18" transform="matrix(1,0,0,1,0,832)"></path><path d="M10,10C24.583333333333332,24.583333333333332,48.75,101.04166666666666,80,80C111.25,58.958333333333336,126.66666666666666,-78.91666666666667,160,-91C193.33333333333334,-103.08333333333333,206.66666666666666,19.5,240,22C273.3333333333333,24.5,286.6666666666667,-90.66666666666667,320,-79C353.3333333333333,-67.33333333333333,366.6666666666667,64.66666666666667,400,78C433.3333333333333,91.33333333333333,446.6666666666667,-22.5,480,-15C513.3333333333334,-7.5,526.6666666666666,127.75,560,114C593.3333333333334,100.25,606.6666666666666,-75.375,640,-81C673.3333333333334,-86.625,686.6666666666666,73.875,720,87C753.3333333333334,100.125,783.3333333333334,3.875,800,-18" transform="matrix(1,0,0,1,0,768)"></path><path d="M10,10C24.583333333333332,24.583333333333332,48.75,101.04166666666666,80,80C111.25,58.958333333333336,126.66666666666666,-78.91666666666667,160,-91C193.33333333333334,-103.08333333333333,206.66666666666666,19.5,240,22C273.3333333333333,24.5,286.6666666666667,-90.66666666666667,320,-79C353.3333333333333,-67.33333333333333,366.6666666666667,64.66666666666667,400,78C433.3333333333333,91.33333333333333,446.6666666666667,-22.5,480,-15C513.3333333333334,-7.5,526.6666666666666,127.75,560,114C593.3333333333334,100.25,606.6666666666666,-75.375,640,-81C673.3333333333334,-86.625,686.6666666666666,73.875,720,87C753.3333333333334,100.125,783.3333333333334,3.875,800,-18" transform="matrix(1,0,0,1,0,704)"></path><path d="M10,10C24.583333333333332,24.583333333333332,48.75,101.04166666666666,80,80C111.25,58.958333333333336,126.66666666666666,-78.91666666666667,160,-91C193.33333333333334,-103.08333333333333,206.66666666666666,19.5,240,22C273.3333333333333,24.5,286.6666666666667,-90.66666666666667,320,-79C353.3333333333333,-67.33333333333333,366.6666666666667,64.66666666666667,400,78C433.3333333333333,91.33333333333333,446.6666666666667,-22.5,480,-15C513.3333333333334,-7.5,526.6666666666666,127.75,560,114C593.3333333333334,100.25,606.6666666666666,-75.375,640,-81C673.3333333333334,-86.625,686.6666666666666,73.875,720,87C753.3333333333334,100.125,783.3333333333334,3.875,800,-18" transform="matrix(1,0,0,1,0,640)"></path><path d="M10,10C24.583333333333332,24.583333333333332,48.75,101.04166666666666,80,80C111.25,58.958333333333336,126.66666666666666,-78.91666666666667,160,-91C193.33333333333334,-103.08333333333333,206.66666666666666,19.5,240,22C273.3333333333333,24.5,286.6666666666667,-90.66666666666667,320,-79C353.3333333333333,-67.33333333333333,366.6666666666667,64.66666666666667,400,78C433.3333333333333,91.33333333333333,446.6666666666667,-22.5,480,-15C513.3333333333334,-7.5,526.6666666666666,127.75,560,114C593.3333333333334,100.25,606.6666666666666,-75.375,640,-81C673.3333333333334,-86.625,686.6666666666666,73.875,720,87C753.3333333333334,100.125,783.3333333333334,3.875,800,-18" transform="matrix(1,0,0,1,0,576)"></path><path d="M10,10C24.583333333333332,24.583333333333332,48.75,101.04166666666666,80,80C111.25,58.958333333333336,126.66666666666666,-78.91666666666667,160,-91C193.33333333333334,-103.08333333333333,206.66666666666666,19.5,240,22C273.3333333333333,24.5,286.6666666666667,-90.66666666666667,320,-79C353.3333333333333,-67.33333333333333,366.6666666666667,64.66666666666667,400,78C433.3333333333333,91.33333333333333,446.6666666666667,-22.5,480,-15C513.3333333333334,-7.5,526.6666666666666,127.75,560,114C593.3333333333334,100.25,606.6666666666666,-75.375,640,-81C673.3333333333334,-86.625,686.6666666666666,73.875,720,87C753.3333333333334,100.125,783.3333333333334,3.875,800,-18" transform="matrix(1,0,0,1,0,512)"></path><path d="M10,10C24.583333333333332,24.583333333333332,48.75,101.04166666666666,80,80C111.25,58.958333333333336,126.66666666666666,-78.91666666666667,160,-91C193.33333333333334,-103.08333333333333,206.66666666666666,19.5,240,22C273.3333333333333,24.5,286.6666666666667,-90.66666666666667,320,-79C353.3333333333333,-67.33333333333333,366.6666666666667,64.66666666666667,400,78C433.3333333333333,91.33333333333333,446.6666666666667,-22.5,480,-15C513.3333333333334,-7.5,526.6666666666666,127.75,560,114C593.3333333333334,100.25,606.6666666666666,-75.375,640,-81C673.3333333333334,-86.625,686.6666666666666,73.875,720,87C753.3333333333334,100.125,783.3333333333334,3.875,800,-18" transform="matrix(1,0,0,1,0,448)"></path><path d="M10,10C24.583333333333332,24.583333333333332,48.75,101.04166666666666,80,80C111.25,58.958333333333336,126.66666666666666,-78.91666666666667,160,-91C193.33333333333334,-103.08333333333333,206.66666666666666,19.5,240,22C273.3333333333333,24.5,286.6666666666667,-90.66666666666667,320,-79C353.3333333333333,-67.33333333333333,366.6666666666667,64.66666666666667,400,78C433.3333333333333,91.33333333333333,446.6666666666667,-22.5,480,-15C513.3333333333334,-7.5,526.6666666666666,127.75,560,114C593.3333333333334,100.25,606.6666666666666,-75.375,640,-81C673.3333333333334,-86.625,686.6666666666666,73.875,720,87C753.3333333333334,100.125,783.3333333333334,3.875,800,-18" transform="matrix(1,0,0,1,0,384)"></path><path d="M10,10C24.583333333333332,24.583333333333332,48.75,101.04166666666666,80,80C111.25,58.958333333333336,126.66666666666666,-78.91666666666667,160,-91C193.33333333333334,-103.08333333333333,206.66666666666666,19.5,240,22C273.3333333333333,24.5,286.6666666666667,-90.66666666666667,320,-79C353.3333333333333,-67.33333333333333,366.6666666666667,64.66666666666667,400,78C433.3333333333333,91.33333333333333,446.6666666666667,-22.5,480,-15C513.3333333333334,-7.5,526.6666666666666,127.75,560,114C593.3333333333334,100.25,606.6666666666666,-75.375,640,-81C673.3333333333334,-86.625,686.6666666666666,73.875,720,87C753.3333333333334,100.125,783.3333333333334,3.875,800,-18" transform="matrix(1,0,0,1,0,320)"></path><path d="M10,10C24.583333333333332,24.583333333333332,48.75,101.04166666666666,80,80C111.25,58.958333333333336,126.66666666666666,-78.91666666666667,160,-91C193.33333333333334,-103.08333333333333,206.66666666666666,19.5,240,22C273.3333333333333,24.5,286.6666666666667,-90.66666666666667,320,-79C353.3333333333333,-67.33333333333333,366.6666666666667,64.66666666666667,400,78C433.3333333333333,91.33333333333333,446.6666666666667,-22.5,480,-15C513.3333333333334,-7.5,526.6666666666666,127.75,560,114C593.3333333333334,100.25,606.6666666666666,-75.375,640,-81C673.3333333333334,-86.625,686.6666666666666,73.875,720,87C753.3333333333334,100.125,783.3333333333334,3.875,800,-18" transform="matrix(1,0,0,1,0,256)"></path><path d="M10,10C24.583333333333332,24.583333333333332,48.75,101.04166666666666,80,80C111.25,58.958333333333336,126.66666666666666,-78.91666666666667,160,-91C193.33333333333334,-103.08333333333333,206.66666666666666,19.5,240,22C273.3333333333333,24.5,286.6666666666667,-90.66666666666667,320,-79C353.3333333333333,-67.33333333333333,366.6666666666667,64.66666666666667,400,78C433.3333333333333,91.33333333333333,446.6666666666667,-22.5,480,-15C513.3333333333334,-7.5,526.6666666666666,127.75,560,114C593.3333333333334,100.25,606.6666666666666,-75.375,640,-81C673.3333333333334,-86.625,686.6666666666666,73.875,720,87C753.3333333333334,100.125,783.3333333333334,3.875,800,-18" transform="matrix(1,0,0,1,0,192)"></path><path d="M10,10C24.583333333333332,24.583333333333332,48.75,101.04166666666666,80,80C111.25,58.958333333333336,126.66666666666666,-78.91666666666667,160,-91C193.33333333333334,-103.08333333333333,206.66666666666666,19.5,240,22C273.3333333333333,24.5,286.6666666666667,-90.66666666666667,320,-79C353.3333333333333,-67.33333333333333,366.6666666666667,64.66666666666667,400,78C433.3333333333333,91.33333333333333,446.6666666666667,-22.5,480,-15C513.3333333333334,-7.5,526.6666666666666,127.75,560,114C593.3333333333334,100.25,606.6666666666666,-75.375,640,-81C673.3333333333334,-86.625,686.6666666666666,73.875,720,87C753.3333333333334,100.125,783.3333333333334,3.875,800,-18" transform="matrix(1,0,0,1,0,128)"></path><path d="M10,10C24.583333333333332,24.583333333333332,48.75,101.04166666666666,80,80C111.25,58.958333333333336,126.66666666666666,-78.91666666666667,160,-91C193.33333333333334,-103.08333333333333,206.66666666666666,19.5,240,22C273.3333333333333,24.5,286.6666666666667,-90.66666666666667,320,-79C353.3333333333333,-67.33333333333333,366.6666666666667,64.66666666666667,400,78C433.3333333333333,91.33333333333333,446.6666666666667,-22.5,480,-15C513.3333333333334,-7.5,526.6666666666666,127.75,560,114C593.3333333333334,100.25,606.6666666666666,-75.375,640,-81C673.3333333333334,-86.625,686.6666666666666,73.875,720,87C753.3333333333334,100.125,783.3333333333334,3.875,800,-18" transform="matrix(1,0,0,1,0,64)"></path></g></svg>