<svg xmlns="http://www.w3.org/2000/svg" version="1.1" xmlns:xlink="http://www.w3.org/1999/xlink" xmlns:svgjs="http://svgjs.dev/svgjs" viewBox="0 0 800 800"><g stroke-width="7" stroke="#ff2600" fill="none" stroke-linecap="butt"><line x1="0" y1="0" x2="222" y2="222" opacity="0.28"></line><line x1="444" y1="0" x2="222" y2="222" opacity="0.91"></line><line x1="444" y1="0" x2="666" y2="222" opacity="0.23"></line><line x1="888" y1="0" x2="666" y2="222" opacity="0.65"></line><line x1="0" y1="222" x2="222" y2="444" opacity="0.46"></line><line x1="222" y1="222" x2="444" y2="444" opacity="0.97"></line><line x1="444" y1="222" x2="666" y2="444" opacity="0.24"></line><line x1="666" y1="222" x2="888" y2="444" opacity="0.16"></line><line x1="222" y1="444" x2="0" y2="666" opacity="0.87"></line><line x1="222" y1="444" x2="444" y2="666" opacity="0.98"></line><line x1="666" y1="444" x2="444" y2="666" opacity="0.95"></line><line x1="888" y1="444" x2="666" y2="666" opacity="0.10"></line><line x1="0" y1="666" x2="222" y2="888" opacity="0.30"></line><line x1="444" y1="666" x2="222" y2="888" opacity="0.52"></line><line x1="666" y1="666" x2="444" y2="888" opacity="0.74"></line><line x1="888" y1="666" x2="666" y2="888" opacity="0.13"></line></g></svg>