<svg xmlns="http://www.w3.org/2000/svg" version="1.1" xmlns:xlink="http://www.w3.org/1999/xlink" xmlns:svgjs="http://svgjs.dev/svgjs" viewBox="0 0 800 800"><g stroke-width="8.5" stroke="#ff2600" fill="none" stroke-linecap="butt"><line x1="144" y1="0" x2="0" y2="144" opacity="0.35"></line><line x1="144" y1="0" x2="288" y2="144" opacity="0.31"></line><line x1="432" y1="0" x2="288" y2="144" opacity="0.63"></line><line x1="576" y1="0" x2="432" y2="144" opacity="0.71"></line><line x1="576" y1="0" x2="720" y2="144" opacity="0.94"></line><line x1="720" y1="0" x2="864" y2="144" opacity="0.91"></line><line x1="144" y1="144" x2="0" y2="288" opacity="0.61"></line><line x1="288" y1="144" x2="144" y2="288" opacity="0.21"></line><line x1="432" y1="144" x2="288" y2="288" opacity="0.46"></line><line x1="432" y1="144" x2="576" y2="288" opacity="0.33"></line><line x1="720" y1="144" x2="576" y2="288" opacity="0.35"></line><line x1="864" y1="144" x2="720" y2="288" opacity="0.15"></line><line x1="144" y1="288" x2="0" y2="432" opacity="0.99"></line><line x1="144" y1="288" x2="288" y2="432" opacity="0.82"></line><line x1="288" y1="288" x2="432" y2="432" opacity="0.98"></line><line x1="576" y1="288" x2="432" y2="432" opacity="0.09"></line><line x1="720" y1="288" x2="576" y2="432" opacity="0.61"></line><line x1="864" y1="288" x2="720" y2="432" opacity="0.10"></line><line x1="0" y1="432" x2="144" y2="576" opacity="0.11"></line><line x1="288" y1="432" x2="144" y2="576" opacity="0.11"></line><line x1="432" y1="432" x2="288" y2="576" opacity="0.09"></line><line x1="432" y1="432" x2="576" y2="576" opacity="0.27"></line><line x1="720" y1="432" x2="576" y2="576" opacity="0.46"></line><line x1="720" y1="432" x2="864" y2="576" opacity="0.42"></line><line x1="144" y1="576" x2="0" y2="720" opacity="0.54"></line><line x1="288" y1="576" x2="144" y2="720" opacity="0.33"></line><line x1="288" y1="576" x2="432" y2="720" opacity="0.64"></line><line x1="576" y1="576" x2="432" y2="720" opacity="0.53"></line><line x1="576" y1="576" x2="720" y2="720" opacity="0.66"></line><line x1="720" y1="576" x2="864" y2="720" opacity="0.23"></line><line x1="144" y1="720" x2="0" y2="864" opacity="0.83"></line><line x1="288" y1="720" x2="144" y2="864" opacity="0.08"></line><line x1="288" y1="720" x2="432" y2="864" opacity="0.29"></line><line x1="576" y1="720" x2="432" y2="864" opacity="0.60"></line><line x1="720" y1="720" x2="576" y2="864" opacity="0.30"></line><line x1="720" y1="720" x2="864" y2="864" opacity="0.43"></line></g></svg>